<svg id="Capa_1" data-name="Capa 1" xmlns="http://www.w3.org/2000/svg" viewBox="0 0 90 90"><defs><style>.cls-1{fill:#22b573;}.cls-2{fill:#fff;}</style></defs><title>wllbnb</title><circle class="cls-1" cx="45" cy="45" r="41.85"/><path class="cls-2" d="M38.68,71.33a9,9,0,0,1-8.19-5.19L17.05,37.57a4.29,4.29,0,0,1-.75-2.28s0-.09,0-.21a4.46,4.46,0,0,1,0-.75,13.69,13.69,0,0,1,4-8.2c4.79-5,13.07-7.47,24.61-7.47s19.82,2.51,24.61,7.47a14.05,14.05,0,0,1,3.82,7.08,4.48,4.48,0,0,1-.07,3.62L59.7,66.08a9,9,0,0,1-8.13,5.23h-.08a9,9,0,0,1-6.39-2.64A9,9,0,0,1,38.68,71.33ZM25.26,34,38.61,62.32l.06,2.89V62.37h.07l1.37-2.84-4-8.33a9,9,0,0,1,8-13l.82,0,1,0a9,9,0,0,1,8.29,13l-4,8.38,1.36,2.8s0,0,.1,0h0l.05,0,13.1-28.19a6.3,6.3,0,0,0-1.4-2c-1.76-1.78-6.49-4.77-18.34-4.77s-16.58,3-18.34,4.77A6.44,6.44,0,0,0,25.26,34ZM44.13,47.27l.94,1.94,1-2a.07.07,0,0,0,0-.09l-.05,0-.83,0-1,0-.05,0-2.57,1.33Z"/><path class="cls-1" d="M71.1,33.94a11.78,11.78,0,0,0-3.25-6.17C63.52,23.29,55.81,21,44.93,21S26.34,23.29,22,27.77a11.41,11.41,0,0,0-3.33,6.82,2,2,0,0,0,0,.44c0,.09,0,.16,0,.18a1.92,1.92,0,0,0,.43,1.15L32.62,65.14a6.7,6.7,0,0,0,12.09.05l.38-.78.38.78a6.65,6.65,0,0,0,6,3.77h.06a6.64,6.64,0,0,0,6-3.87L71.15,35.85A2.13,2.13,0,0,0,71.1,33.94Zm-29,12a2.37,2.37,0,0,1,2-1.15l.92,0,.9,0a2.37,2.37,0,0,1,2,1.12,2.42,2.42,0,0,1,.14,2.37l-3.06,6.36L42,48.3A2.4,2.4,0,0,1,42.13,46ZM52,50.1a6.69,6.69,0,0,0-6.13-9.6l-.92,0-.85,0a6.69,6.69,0,0,0-5.9,9.62l4.54,9.35-1.84,3.82a2.43,2.43,0,0,1-4.39,0L22.73,34.09a8.1,8.1,0,0,1,2.19-3.67c2.47-2.5,7.94-5.47,20-5.47s17.55,3,20,5.47a8,8,0,0,1,2.23,3.87l-13.48,29a2.38,2.38,0,0,1-2.18,1.41h0a2.4,2.4,0,0,1-2.21-1.37l-1.85-3.82Z"/></svg>